<svg version="1.1" id="Layer_1" xmlns:x="ns_extend;" xmlns:i="ns_ai;" xmlns:graph="ns_graphs;" xmlns="http://www.w3.org/2000/svg" xmlns:xlink="http://www.w3.org/1999/xlink" x="0px" y="0px" viewBox="0 0 170.8 62.7" style="enable-background:new 0 0 170.8 62.7;" xml:space="preserve">
 <style type="text/css">
  .st0{fill:#F04444;}
	.st1{fill:#FFFFFF;}
 </style>
 <metadata>
  <sfw xmlns="ns_sfw;">
   <slices>
   </slices>
   <sliceSourceBounds bottomLeftOrigin="true" height="62.7" width="170.8" x="0" y="0">
   </sliceSourceBounds>
  </sfw>
 </metadata>
 <g id="Group_33006" transform="translate(0)">
  <g id="Group_28926" transform="translate(0 0)">
   <g id="Group_28782" transform="translate(0 0)">
    <path id="Path_35226" class="st0" d="M33.8,62.7c-2.6,0-5.2-0.3-7.7-0.9c-8.7-2-16.3-7.4-21-15C-4.7,31,0.1,10.3,15.9,0.4
				c1.3-0.8,2.9-0.4,3.7,0.9C20.4,2.5,20,4.2,18.7,5c0,0,0,0,0,0C5.5,13.3,1.4,30.7,9.7,44c4,6.4,10.3,10.9,17.6,12.6
				c7.3,1.7,15,0.5,21.4-3.5c1.3-0.8,2.9-0.4,3.7,0.9c0.8,1.3,0.4,2.9-0.9,3.7C46.2,61,40,62.7,33.8,62.7z">
    </path>
   </g>
   <g id="Group_28783" transform="translate(54.483 48.419)">
    <ellipse id="Ellipse_248" class="st0" cx="2.8" cy="2.8" rx="2.8" ry="2.8">
    </ellipse>
   </g>
  </g>
  <g id="Group_29002" transform="translate(24.058 15.823)">
   <path id="Path_24206" class="st1" d="M0,12C-0.2,5.8,4.7,0.7,10.9,0.5c0.2,0,0.4,0,0.6,0c3.9-0.1,7.4,1.9,9.5,5.2l-3.7,2.2
			c-1.2-2-3.4-3.2-5.7-3.1c-3.8-0.2-7,2.7-7.2,6.5c0,0.2,0,0.5,0,0.7c-0.2,3.8,2.7,7,6.4,7.2c0.2,0,0.5,0,0.7,0
			c2.3,0.1,4.5-1.1,5.7-3.1l3.7,2.2c-2,3.3-5.6,5.3-9.5,5.2C5.3,23.6,0.2,18.7,0,12.5C0,12.3,0,12.2,0,12z">
   </path>
   <path id="Path_24207" class="st1" d="M23.7,0h4.1v23h-4.1V0z">
   </path>
   <path id="Path_24208" class="st1" d="M39.3,19.7c1.4,0.1,2.7-0.5,3.5-1.6l3.3,1.9c-1.6,2.2-4.2,3.5-6.9,3.4
			c-5.3,0-8.6-3.6-8.6-8.3C30.5,10.7,34,7,38.4,6.8c0.2,0,0.4,0,0.6,0c4.7,0,8,3.7,8,8.3c0,0.6-0.1,1.1-0.2,1.7H34.9
			C35.5,18.9,37.2,19.7,39.3,19.7z M42.9,13.6c-0.3-1.9-2-3.2-3.9-3.2c-2-0.1-3.8,1.2-4.1,3.2H42.9z">
   </path>
   <path id="Path_24209" class="st1" d="M64,7.2L58,23h-4.6l-6-15.7h4.5l3.8,11l3.8-11H64z">
   </path>
   <path id="Path_24210" class="st1" d="M73.1,19.7c1.4,0.1,2.7-0.5,3.5-1.6l3.3,1.9c-1.6,2.2-4.2,3.5-6.9,3.4
			c-5.3,0-8.6-3.6-8.6-8.3c-0.2-4.4,3.3-8.2,7.8-8.3c0.2,0,0.4,0,0.6,0c4.7,0,8,3.7,8,8.3c0,0.6-0.1,1.1-0.2,1.7H68.7
			C69.3,18.9,71,19.7,73.1,19.7z M76.7,13.6c-0.3-1.9-2-3.2-3.9-3.2c-2-0.1-3.8,1.2-4.1,3.2H76.7z">
   </path>
   <path id="Path_24211" class="st1" d="M110.8,5.1h-6V23h-4.3V5.1h-5.9V0.9h16.2L110.8,5.1z">
   </path>
   <path id="Path_24212" class="st1" d="M126.2,7.2V23h-4.1v-1.9c-1.3,1.5-3.2,2.4-5.1,2.3c-4.2,0-7.7-3.6-7.7-8.3s3.5-8.3,7.7-8.3
			c2-0.1,3.9,0.8,5.1,2.3V7.2L126.2,7.2z M122.2,15.1c0.1-2.3-1.7-4.3-4-4.4c-0.1,0-0.2,0-0.4,0c-2.3-0.1-4.3,1.8-4.3,4.1
			c0,0.1,0,0.2,0,0.3c-0.1,2.3,1.7,4.3,4,4.4c0.1,0,0.2,0,0.3,0c2.3,0.1,4.3-1.7,4.4-4.1C122.2,15.4,122.2,15.2,122.2,15.1
			L122.2,15.1z">
   </path>
   <path id="Path_24213" class="st1" d="M146.8,15.1c0,4.7-3.5,8.3-7.7,8.3c-2,0.1-3.9-0.8-5.1-2.3v8.2h-4.1v-22h4.1v1.9
			c1.2-1.5,3.1-2.4,5.1-2.3C143.3,6.8,146.8,10.4,146.8,15.1z M142.7,15.1c0.1-2.3-1.7-4.3-4-4.4c-0.1,0-0.2,0-0.4,0
			c-2.3-0.1-4.3,1.8-4.3,4.1c0,0.1,0,0.2,0,0.3c-0.1,2.3,1.7,4.3,4,4.4c0.1,0,0.2,0,0.3,0c2.3,0.1,4.3-1.7,4.4-4.1
			C142.7,15.4,142.7,15.2,142.7,15.1L142.7,15.1z">
   </path>
   <path id="Path_24214" class="st1" d="M87.7,23h-4.1V6.8h5.6c3.6-0.2,6.7,2.4,7,6l-4,0.6c-0.3-2.4-2-2.6-2.7-2.5h-1.8L87.7,23z">
   </path>
  </g>
 </g>
</svg>