<?xml version="1.0" encoding="utf-8"?>
<!-- Generator: Adobe Illustrator 24.2.3, SVG Export Plug-In . SVG Version: 6.00 Build 0)  -->
<svg version="1.1" id="logo" xmlns="http://www.w3.org/2000/svg" xmlns:xlink="http://www.w3.org/1999/xlink" x="0px" y="0px"
	 viewBox="0 0 391.6 298.8" style="enable-background:new 0 0 391.6 298.8;" xml:space="preserve">
<style type="text/css">
	.st0{fill:#FFFFFF;}
	.st1{fill:#F15A2B;}
</style>
<g>
	<path class="st0" d="M30,176.4c11.7,0,23.4,5.6,26.7,19.2H44.4c-2.9-5.7-7.7-7.9-14.4-7.9c-11,0-17.2,8.2-17.2,18.7
		c0,11.1,6.7,18.6,17.2,18.6c8.1,0,14-2.4,16.5-11.2H30.4v-10.5H58c0.3,5.6,0.2,11-1.8,16.3c-4.5,11.7-15,16.7-26.2,16.7
		c-15.6,0-30-10.6-30-29.9S14.5,176.4,30,176.4z"/>
	<path class="st0" d="M121,233.6v1.7h-13.5l-12.1-19.2H84.9v19.2H72.3V177c8.4,0,16.7-0.1,25.1,0c13.5,0,20.8,9.7,20.8,20
		c0,7.4-3.8,13.9-10.5,17.2L121,233.6z M97.4,205.9c5.3,0,8.7-4.1,8.7-9.1c0-4.9-3.3-8.8-8.7-8.8H84.8v17.9H97.4z"/>
	<path class="st0" d="M147.9,225.8l-4.5,9.7h-13.1v-1.7l27.1-57.1h5.8l26.9,57.1v1.7h-13l-4.6-9.7H147.9z M152,215.3h16.3l-8.2-19.2
		L152,215.3z"/>
	<path class="st0" d="M215.2,210l6.2-14.3l7.9-18.6h13.4v1.8l-25.1,56.4h-5.2l-25.3-56.4v-1.8h13.4l7.9,18.6L215,210H215.2z"/>
	<path class="st0" d="M254.7,235.4V177h12.6v58.5H254.7z"/>
	<path class="st0" d="M279.3,187.9v-10.8h49.5v10.8h-18.6v47.5H298v-47.5H279.3z"/>
	<path class="st0" d="M363.3,200.7l5.8-11.6l7.1-12h13.4v1.8l-20.2,33.1v23.3h-12.6v-23.3L336.4,179v-1.8H350l7.3,12.4l5.6,11.2
		H363.3z"/>
</g>
<g>
	<path class="st1" d="M265,105.1c0,7-4.9,15.7-10.9,19.3l-47.6,27.9c-6.1,3.6-16,3.6-22.2,0.2l-48-27.3
		c-6.1-3.5-11.2-12.1-11.2-19.1l-0.4-55.2c0-7,4.9-15.7,10.9-19.3l47.6-27.9c6.1-3.6,16-3.6,22.2-0.2l48,27.3
		c6.1,3.5,11.2,12.1,11.2,19.1L265,105.1L265,105.1z"/>
	<path class="st0" d="M181.4,65.2h63V47.4h-62.8c-9,0-16.4,3.1-22.1,9.2c-13.7,14.7-14.1,51.6-14.1,51.6h98.6V74.8h-17.7v15.6h-62
		c0.4-5.8,3-16.2,8.1-21.6C174.6,66.4,177.5,65.2,181.4,65.2L181.4,65.2z"/>
</g>
<g>
	<path class="st0" d="M77.4,256.3v17H98v4.3H77.4V298h-4.6v-46H99v4.3H77.4z"/>
	<path class="st0" d="M110.9,275c0-13.1,10.5-23.8,24-23.8c13.5,0,24,10.6,24,23.8c0,13.1-10.5,23.8-24,23.8
		C121.4,298.8,110.9,288.1,110.9,275z M154.3,275c0-10.7-8.4-19.3-19.4-19.3c-11,0-19.4,8.6-19.4,19.3c0,10.7,8.4,19.3,19.4,19.3
		C146,294.3,154.3,285.7,154.3,275z"/>
	<path class="st0" d="M191.3,279.6h-13V298h-4.6v-46h18.6c7.7,0,13.9,6.2,13.9,13.8c0,6.2-4.2,11.6-10,13.2l11.4,19h-5.3
		L191.3,279.6z M178.2,275.2h13.9c5.1,0,9.3-4.3,9.3-9.5c0-5.3-4.2-9.5-9.3-9.5h-13.9V275.2z"/>
	<path class="st0" d="M263.2,298h-4.6v-39l-16.3,26.9h-0.7L225.4,259v39h-4.6v-46h5.8l15.5,25.6l15.5-25.6h5.8V298z"/>
	<path class="st0" d="M277.2,287.5l4-2.3c1.7,5.5,6,9.1,13.3,9.1c7,0,11-3.4,11-8.3c0-5.3-4.6-7-11.4-9.3
		c-7.6-2.5-14.9-4.5-14.9-12.9c0-8.1,6.6-12.6,14.3-12.6c7.6,0,12.9,4.5,15.3,9.9l-3.9,2.2c-1.7-4.1-5.3-7.6-11.4-7.6
		c-5.6,0-9.6,2.9-9.6,8c0,5,4,6.6,10.3,8.6c8.4,2.8,16,5.1,16,13.7c0,7.9-6.4,12.9-15.7,12.9C285.9,298.8,279.5,294.5,277.2,287.5z"
		/>
</g>
</svg>
